<svg id="o-grp-new" xmlns="http://www.w3.org/2000/svg" xmlns:xlink="http://www.w3.org/1999/xlink" viewBox="0 0 197.787 140.835">
  <style type="text/css">
 .animate{
    stroke-dasharray: 300;
    stroke-dashoffset: 300;
    animation: dash 3s linear forwards;
   }
   @keyframes dash {
   to {
    stroke-dashoffset: 0;
    }
   }
</style>
  <defs>
    <link href="index.css" type="text/css" rel="stylesheet" xmlns="http://www.w3.org/2000/svg"    />
    <clipPath id="clip-path" transform="translate(-44.484 -135.454)">
      <path id="rename" d="M222.972,181.08a14.852,14.852,0,0,1-6.539,2.432c-18.833,1.888-37.651,4.11-56.536,5.173-16.9.953-32.912-3.03-47.219-12.621a17.86,17.86,0,0,0-3.123-1.342c-2.817,11.535-5.2,22.764-8.337,33.783-4.063,14.292-9.58,28.072-18.325,40.209a94.384,94.384,0,0,1-13.039,14.394c-3.785,3.452-8.629,5.517-13.884,2.651-4.728-2.577-5.981-7.155-5.97-12.085a46.186,46.186,0,0,1,.909-9.687c5.813-26.786,15.033-52.295,29.157-75.878a99.317,99.317,0,0,1,9.942-13.582,21.336,21.336,0,0,1,7.72-5.734c6.516-2.693,13.581,1.788,12.7,8.689-.811,6.37,2.338,9.321,6.527,12.257,10.025,7.021,21.392,10.874,33.429,10,16.472-1.205,32.878-3.688,49.242-6.12,5.772-.86,11.341-3.119,16.97-4.858,4.227-1.306,7.612-.386,9.041,2.94C227.24,175.443,226.3,178.832,222.972,181.08ZM95.693,166.8c-15.65,14.887-37.344,71.457-32.478,84.679C78.655,236.3,98.2,185.337,95.693,166.8Z" style="fill: none"/>
    </clipPath>
  </defs>
  <g style="clip-path: url(#clip-path)">
    <polyline class="animate"  id="o-path-new" points="68.516 7.546 45.516 27.546 35.516 42.546 19.516 77.546 13.516 100.546 10.516 119.546 15.516 126.546 24.516 119.546 34.016 109.24 43.516 89.546 51.516 70.546 56.516 53.546 58.516 34.546 60.516 25.546 75.516 40.546 110.516 49.546 149.516 45.546 168.516 40.546 194.516 31.546" style="fill: none;stroke: #000;stroke-width: 20px"/>
  </g>
</svg>
